<mxfile host="65bd71144e">
    <diagram id="r42jsTGxHJVRxmjJ8FQ8" name="Page-1">
        <mxGraphModel dx="2076" dy="1858" grid="1" gridSize="10" guides="1" tooltips="1" connect="1" arrows="1" fold="1" page="1" pageScale="1" pageWidth="850" pageHeight="1100" background="none" math="0" shadow="0">
            <root>
                <mxCell id="0"/>
                <mxCell id="1" parent="0"/>
                <mxCell id="48" style="edgeStyle=none;html=1;exitX=0.5;exitY=0;exitDx=0;exitDy=0;" parent="1" source="44" target="43" edge="1">
                    <mxGeometry relative="1" as="geometry"/>
                </mxCell>
                <mxCell id="30" value="" style="rounded=1;whiteSpace=wrap;html=1;movable=1;resizable=1;rotatable=1;deletable=1;editable=1;locked=0;connectable=1;container=1;fillColor=#fff2cc;strokeColor=#d6b656;" parent="1" vertex="1">
                    <mxGeometry x="220" y="-120" width="480" height="320" as="geometry"/>
                </mxCell>
                <mxCell id="31" value="&lt;ol&gt;&lt;li&gt;&lt;span style=&quot;font-weight: 700; text-wrap-mode: nowrap; background-color: transparent;&quot;&gt;Synchronous code executes first&lt;/span&gt;&lt;/li&gt;&lt;/ol&gt;" style="rounded=1;whiteSpace=wrap;html=1;align=left;direction=east;" parent="30" vertex="1">
                    <mxGeometry x="53.333333333333336" y="60" width="300" height="30" as="geometry"/>
                </mxCell>
                <mxCell id="42" value="&lt;b&gt;&lt;font style=&quot;font-size: 24px;&quot;&gt;Code base&lt;/font&gt;&lt;/b&gt;" style="rounded=1;whiteSpace=wrap;html=1;align=left;fillColor=#fa6800;fontColor=#000000;strokeColor=#C73500;" parent="30" vertex="1">
                    <mxGeometry x="133.33333333333334" y="20" width="186.66666666666666" height="30" as="geometry"/>
                </mxCell>
                <mxCell id="32" value="&lt;div style=&quot;&quot;&gt;&lt;font style=&quot;color: light-dark(rgb(0, 0, 0), rgb(255, 255, 255));&quot;&gt;&lt;span style=&quot;background-color: transparent; text-wrap-mode: nowrap; font-weight: 700;&quot;&gt;3. Macrotasks&amp;nbsp;&lt;/span&gt;&lt;span style=&quot;background-color: transparent; text-wrap-mode: nowrap; font-weight: 700;&quot;&gt;execute next&lt;/span&gt;&lt;/font&gt;&lt;/div&gt;" style="rounded=1;whiteSpace=wrap;html=1;align=center;" parent="30" vertex="1">
                    <mxGeometry x="153.33" y="270" width="186.67" height="40" as="geometry"/>
                </mxCell>
                <mxCell id="33" value="&lt;span style=&quot;background-color: transparent; font-weight: 700; text-wrap-mode: nowrap;&quot;&gt;&lt;font style=&quot;color: light-dark(rgb(192, 192, 192), rgb(255, 255, 255));&quot;&gt;2. Microtasks execute next&lt;/font&gt;&lt;/span&gt;" style="rounded=1;whiteSpace=wrap;html=1;align=center;" parent="30" vertex="1">
                    <mxGeometry x="163.33333333333331" y="110" width="226.66666666666666" height="30" as="geometry"/>
                </mxCell>
                <mxCell id="79" value="&lt;li style=&quot;color: rgb(63, 63, 63); scrollbar-color: rgb(226, 226, 226) rgb(251, 251, 251); font-weight: 700; text-wrap-mode: nowrap;&quot; class=&quot;whitespace-normal break-words&quot;&gt;promise result(.then, .catch)&lt;/li&gt;" style="rounded=1;whiteSpace=wrap;html=1;align=left;" parent="30" vertex="1">
                    <mxGeometry x="260" y="170" width="200" height="50" as="geometry"/>
                </mxCell>
                <mxCell id="78" value="&lt;li style=&quot;color: rgb(63, 63, 63); scrollbar-color: rgb(226, 226, 226) rgb(251, 251, 251); font-weight: 700; text-wrap-mode: nowrap;&quot; class=&quot;whitespace-normal break-words&quot;&gt;fetch, filereader.&lt;/li&gt;" style="rounded=1;whiteSpace=wrap;html=1;align=left;" parent="30" vertex="1">
                    <mxGeometry x="27" y="170" width="203" height="40" as="geometry"/>
                </mxCell>
                <mxCell id="80" value="" style="endArrow=classic;html=1;exitX=0.5;exitY=1;exitDx=0;exitDy=0;entryX=0.5;entryY=0;entryDx=0;entryDy=0;edgeStyle=orthogonalEdgeStyle;" parent="30" source="33" target="78" edge="1">
                    <mxGeometry width="50" height="50" relative="1" as="geometry">
                        <mxPoint x="130" y="290" as="sourcePoint"/>
                        <mxPoint x="180" y="240" as="targetPoint"/>
                    </mxGeometry>
                </mxCell>
                <mxCell id="81" value="" style="endArrow=classic;html=1;entryX=0.5;entryY=0;entryDx=0;entryDy=0;exitX=0.5;exitY=1;exitDx=0;exitDy=0;edgeStyle=orthogonalEdgeStyle;" parent="30" source="33" target="79" edge="1">
                    <mxGeometry width="50" height="50" relative="1" as="geometry">
                        <mxPoint x="280" y="150" as="sourcePoint"/>
                        <mxPoint x="134" y="190" as="targetPoint"/>
                    </mxGeometry>
                </mxCell>
                <mxCell id="11" value="" style="edgeStyle=orthogonalEdgeStyle;html=1;entryX=1;entryY=0.25;entryDx=0;entryDy=0;flowAnimation=1;exitX=0.625;exitY=1.047;exitDx=0;exitDy=0;exitPerimeter=0;" parent="1" source="12" target="8" edge="1">
                    <mxGeometry relative="1" as="geometry">
                        <Array as="points">
                            <mxPoint x="660" y="688"/>
                        </Array>
                    </mxGeometry>
                </mxCell>
                <mxCell id="50" value="timer done ,&lt;div&gt;request complete ,&lt;div&gt;&amp;nbsp;event fired)&lt;/div&gt;&lt;/div&gt;" style="edgeLabel;html=1;align=center;verticalAlign=middle;resizable=0;points=[];" parent="11" vertex="1" connectable="0">
                    <mxGeometry x="-0.4604" y="-1" relative="1" as="geometry">
                        <mxPoint as="offset"/>
                    </mxGeometry>
                </mxCell>
                <mxCell id="5" value="web apis/Node api" style="swimlane;childLayout=stackLayout;horizontal=1;startSize=60;horizontalStack=0;rounded=1;fontSize=14;fontStyle=0;strokeWidth=2;resizeParent=0;resizeLast=1;shadow=0;dashed=0;align=center;arcSize=4;whiteSpace=wrap;html=1;fillColor=#d5e8d4;strokeColor=#82b366;" parent="1" vertex="1">
                    <mxGeometry x="561" y="270" width="160" height="135" as="geometry"/>
                </mxCell>
                <mxCell id="12" value="&lt;ul&gt;&lt;li&gt;Some microtask&lt;/li&gt;&lt;li&gt;macrotask&lt;/li&gt;&lt;/ul&gt;" style="text;html=1;align=left;verticalAlign=middle;resizable=0;points=[];autosize=1;" parent="5" vertex="1">
                    <mxGeometry y="60" width="160" height="75" as="geometry"/>
                </mxCell>
                <mxCell id="7" value="callback queue(Macrotask Queue)" style="swimlane;childLayout=stackLayout;horizontal=1;startSize=50;horizontalStack=0;rounded=1;fontSize=14;fontStyle=0;strokeWidth=2;resizeParent=0;resizeLast=1;shadow=0;dashed=0;align=center;arcSize=4;whiteSpace=wrap;html=1;fillColor=#f8cecc;strokeColor=#b85450;" parent="1" vertex="1">
                    <mxGeometry x="335" y="620" width="180" height="120" as="geometry"/>
                </mxCell>
                <mxCell id="8" value="setimeout task&lt;div&gt;click event task&lt;/div&gt;&lt;div&gt;fetch task&lt;/div&gt;&lt;div&gt;I/O operations etc&lt;/div&gt;" style="align=left;strokeColor=none;fillColor=none;spacingLeft=4;fontSize=12;verticalAlign=top;resizable=0;rotatable=0;part=1;html=1;" parent="7" vertex="1">
                    <mxGeometry y="50" width="180" height="70" as="geometry"/>
                </mxCell>
                <mxCell id="10" value="" style="whiteSpace=wrap;html=1;fontSize=14;fontStyle=0;startSize=50;rounded=1;strokeWidth=2;shadow=0;dashed=0;arcSize=4;" parent="7" vertex="1">
                    <mxGeometry y="120" width="180" as="geometry"/>
                </mxCell>
                <mxCell id="17" value="" style="html=1;flowAnimation=1;exitX=0.5;exitY=1;exitDx=0;exitDy=0;entryX=0;entryY=0.385;entryDx=0;entryDy=0;entryPerimeter=0;edgeStyle=orthogonalEdgeStyle;" parent="1" source="32" target="5" edge="1">
                    <mxGeometry relative="1" as="geometry">
                        <mxPoint x="469" y="270" as="sourcePoint"/>
                        <mxPoint x="460" y="340" as="targetPoint"/>
                    </mxGeometry>
                </mxCell>
                <mxCell id="41" value="all macro&lt;div&gt;task goes to&lt;/div&gt;&lt;div&gt;web api first&lt;/div&gt;" style="edgeLabel;html=1;align=center;verticalAlign=middle;resizable=0;points=[];" parent="17" vertex="1" connectable="0">
                    <mxGeometry x="-0.2597" y="4" relative="1" as="geometry">
                        <mxPoint x="11" y="4" as="offset"/>
                    </mxGeometry>
                </mxCell>
                <mxCell id="35" value="call stack" style="swimlane;fontStyle=1;childLayout=stackLayout;horizontal=1;startSize=26;horizontalStack=0;resizeParent=1;resizeParentMax=0;resizeLast=0;collapsible=1;marginBottom=0;align=center;fontSize=14;fillColor=#dae8fc;strokeColor=#6c8ebf;" parent="1" vertex="1">
                    <mxGeometry x="150" y="260" width="230" height="90" as="geometry">
                        <mxRectangle y="600" width="60" height="30" as="alternateBounds"/>
                    </mxGeometry>
                </mxCell>
                <mxCell id="36" value="&lt;span style=&quot;color: rgb(0, 0, 0); font-size: 14px; text-align: center;&quot;&gt;&lt;b&gt;1. sync task&lt;/b&gt;&amp;nbsp;&lt;/span&gt;&lt;span style=&quot;font-size: 14px; text-align: center; background-color: transparent;&quot;&gt;executes here first&lt;/span&gt;" style="text;strokeColor=default;fillColor=none;spacingLeft=4;spacingRight=4;overflow=hidden;rotatable=0;points=[[0,0.5],[1,0.5]];portConstraint=eastwest;fontSize=12;whiteSpace=wrap;html=1;" parent="35" vertex="1">
                    <mxGeometry y="26" width="230" height="24" as="geometry"/>
                </mxCell>
                <mxCell id="37" value="2.&lt;span style=&quot;font-weight: normal;&quot;&gt; then the event loop moves microtask here 1 by 1.&lt;/span&gt;" style="text;strokeColor=default;fillColor=none;spacingLeft=4;spacingRight=4;overflow=hidden;rotatable=0;points=[[0,0.5],[1,0.5]];portConstraint=eastwest;fontSize=12;whiteSpace=wrap;html=1;fontStyle=1" parent="35" vertex="1">
                    <mxGeometry y="50" width="230" height="40" as="geometry"/>
                </mxCell>
                <mxCell id="43" value="&lt;font style=&quot;font-size: 12px;&quot;&gt;Microtask Queue(Created by Browser js engine)&lt;/font&gt;" style="swimlane;childLayout=stackLayout;horizontal=1;startSize=50;horizontalStack=0;rounded=1;fontSize=14;fontStyle=0;strokeWidth=2;resizeParent=0;resizeLast=1;shadow=0;dashed=0;align=center;arcSize=4;whiteSpace=wrap;html=1;fillColor=#e1d5e7;strokeColor=#9673a6;" parent="1" vertex="1">
                    <mxGeometry x="410" y="442.5" width="140" height="120" as="geometry"/>
                </mxCell>
                <mxCell id="44" value="promise task&lt;div&gt;mutationObserver task&lt;/div&gt;&lt;div&gt;async/await&lt;/div&gt;&lt;div&gt;queueMicrotask()&lt;/div&gt;" style="align=left;strokeColor=none;fillColor=none;spacingLeft=4;fontSize=12;verticalAlign=top;resizable=0;rotatable=0;part=1;html=1;" parent="43" vertex="1">
                    <mxGeometry y="50" width="140" height="70" as="geometry"/>
                </mxCell>
                <mxCell id="45" value="" style="whiteSpace=wrap;html=1;fontSize=14;fontStyle=0;startSize=50;rounded=1;strokeWidth=2;shadow=0;dashed=0;arcSize=4;" parent="43" vertex="1">
                    <mxGeometry y="120" width="140" as="geometry"/>
                </mxCell>
                <mxCell id="51" value="" style="endArrow=classic;html=1;entryX=1;entryY=0.25;entryDx=0;entryDy=0;flowAnimation=1;edgeStyle=orthogonalEdgeStyle;" parent="1" target="44" edge="1">
                    <mxGeometry width="50" height="50" relative="1" as="geometry">
                        <mxPoint x="660" y="570" as="sourcePoint"/>
                        <mxPoint x="240" y="510" as="targetPoint"/>
                    </mxGeometry>
                </mxCell>
                <mxCell id="58" value="" style="group;strokeColor=light-dark(#000000,#FFFFFF);" parent="1" vertex="1" connectable="0">
                    <mxGeometry x="-30" y="467.5" width="100" height="95" as="geometry"/>
                </mxCell>
                <mxCell id="56" value="" style="sketch=0;html=1;aspect=fixed;strokeColor=default;shadow=0;fillColor=#3B8DF1;verticalAlign=top;labelPosition=center;verticalLabelPosition=bottom;shape=mxgraph.gcp2.arrow_cycle;gradientColor=none;" parent="58" vertex="1">
                    <mxGeometry width="100" height="95" as="geometry"/>
                </mxCell>
                <mxCell id="57" value="&lt;b&gt;event&lt;/b&gt;&lt;div&gt;&lt;b&gt;loop&lt;/b&gt;&lt;/div&gt;" style="text;html=1;align=center;verticalAlign=middle;resizable=0;points=[];autosize=1;strokeColor=none;fillColor=default;container=1;rounded=0;" parent="58" vertex="1">
                    <mxGeometry x="25" y="27.5" width="50" height="40" as="geometry"/>
                </mxCell>
                <mxCell id="63" value="" style="endArrow=classic;html=1;exitX=0;exitY=0.75;exitDx=0;exitDy=0;entryX=0.348;entryY=0;entryDx=0;entryDy=0;entryPerimeter=0;elbow=vertical;flowAnimation=1;edgeStyle=orthogonalEdgeStyle;" parent="1" source="31" target="35" edge="1">
                    <mxGeometry width="50" height="50" relative="1" as="geometry">
                        <mxPoint x="40" y="440" as="sourcePoint"/>
                        <mxPoint x="90" y="410" as="targetPoint"/>
                        <Array as="points">
                            <mxPoint x="200" y="-37"/>
                            <mxPoint x="200" y="230"/>
                            <mxPoint x="230" y="230"/>
                        </Array>
                    </mxGeometry>
                </mxCell>
                <mxCell id="64" value="" style="endArrow=classic;html=1;entryX=0.417;entryY=-0.006;entryDx=0;entryDy=0;entryPerimeter=0;exitX=0.5;exitY=1;exitDx=0;exitDy=0;edgeStyle=orthogonalEdgeStyle;flowAnimation=1;" parent="1" source="78" target="5" edge="1">
                    <mxGeometry width="50" height="50" relative="1" as="geometry">
                        <mxPoint x="140" y="520" as="sourcePoint"/>
                        <mxPoint x="190" y="470" as="targetPoint"/>
                        <Array as="points">
                            <mxPoint x="349" y="140"/>
                            <mxPoint x="690" y="140"/>
                            <mxPoint x="690" y="220"/>
                            <mxPoint x="628" y="220"/>
                        </Array>
                    </mxGeometry>
                </mxCell>
                <mxCell id="88" value="&lt;span style=&quot;font-size: 12px; background-color: light-dark(#ffffff, var(--ge-dark-color, #121212));&quot;&gt;If it’s handled by&lt;/span&gt;&lt;br&gt;&lt;span style=&quot;font-size: 12px; background-color: light-dark(#ffffff, var(--ge-dark-color, #121212));&quot;&gt;&amp;nbsp;the&amp;nbsp;&lt;/span&gt;&lt;font style=&quot;&quot;&gt;&lt;span style=&quot;scrollbar-color: rgb(75, 75, 75) rgb(27, 29, 30); font-size: 12px; text-align: left; text-wrap-mode: wrap;&quot;&gt;&lt;font style=&quot;scrollbar-color: rgb(75, 75, 75) rgb(27, 29, 30);&quot;&gt;&lt;span style=&quot;scrollbar-color: rgb(75, 75, 75) rgb(27, 29, 30); text-wrap-mode: nowrap; color: rgb(192, 192, 192);&quot;&gt;&lt;font style=&quot;color: light-dark(rgb(0, 0, 0), rgb(255, 255, 255));&quot;&gt;browser&amp;nbsp;&lt;/font&gt;&lt;/span&gt;&lt;/font&gt;&lt;/span&gt;&lt;span style=&quot;scrollbar-color: rgb(75, 75, 75) rgb(27, 29, 30); font-size: 12px; text-align: left; color: rgb(192, 192, 192);&quot;&gt;&lt;font style=&quot;color: light-dark(rgb(0, 0, 0), rgb(255, 255, 255));&quot;&gt;,&lt;/font&gt;&lt;/span&gt;&lt;span style=&quot;color: rgb(192, 192, 192); scrollbar-color: rgb(75, 75, 75) rgb(27, 29, 30); font-size: 12px; text-align: left;&quot;&gt;&amp;nbsp;&lt;/span&gt;&lt;/font&gt;&lt;div&gt;&lt;font style=&quot;&quot;&gt;&lt;span style=&quot;color: rgb(192, 192, 192); scrollbar-color: rgb(75, 75, 75) rgb(27, 29, 30); font-size: 12px; text-align: left;&quot;&gt;&lt;font style=&quot;scrollbar-color: rgb(75, 75, 75) rgb(27, 29, 30);&quot;&gt;it uses Web APIs&lt;br&gt;&lt;/font&gt;&lt;/span&gt;&lt;/font&gt;&lt;/div&gt;" style="edgeLabel;html=1;align=center;verticalAlign=middle;resizable=0;points=[];labelBackgroundColor=default;" vertex="1" connectable="0" parent="64">
                    <mxGeometry x="0.4563" y="-1" relative="1" as="geometry">
                        <mxPoint y="1" as="offset"/>
                    </mxGeometry>
                </mxCell>
                <mxCell id="38" value="3.&lt;span style=&quot;font-weight: normal;&quot;&gt; after all microtask execution is over, then the event loop sents macrotask here at last&lt;/span&gt;" style="text;strokeColor=default;fillColor=none;spacingLeft=4;spacingRight=4;overflow=hidden;rotatable=0;points=[[0,0.5],[1,0.5]];portConstraint=eastwest;fontSize=12;whiteSpace=wrap;html=1;fontStyle=1" parent="1" vertex="1">
                    <mxGeometry x="150" y="350" width="230" height="50" as="geometry"/>
                </mxCell>
                <mxCell id="82" value="" style="endArrow=classic;html=1;entryX=1;entryY=0.25;entryDx=0;entryDy=0;exitX=1;exitY=0.5;exitDx=0;exitDy=0;edgeStyle=orthogonalEdgeStyle;flowAnimation=1;" parent="1" source="79" target="43" edge="1">
                    <mxGeometry width="50" height="50" relative="1" as="geometry">
                        <mxPoint x="300" y="370" as="sourcePoint"/>
                        <mxPoint x="350" y="320" as="targetPoint"/>
                        <Array as="points">
                            <mxPoint x="820" y="75"/>
                            <mxPoint x="820" y="473"/>
                        </Array>
                    </mxGeometry>
                </mxCell>
                <mxCell id="87" value="&lt;span style=&quot;font-size: 12px;&quot;&gt;&lt;font style=&quot;color: light-dark(rgb(0, 0, 0), rgb(255, 255, 255));&quot;&gt;If it’s handled&amp;nbsp;&lt;/font&gt;&lt;/span&gt;&lt;div&gt;&lt;font style=&quot;&quot;&gt;&lt;span style=&quot;font-size: 12px;&quot;&gt;&lt;font style=&quot;color: light-dark(rgb(192, 192, 192), rgb(255, 255, 255));&quot;&gt;purely by JS&lt;/font&gt;&lt;/span&gt;&lt;br&gt;&lt;font style=&quot;color: rgb(192, 192, 192); scrollbar-color: rgb(75, 75, 75) rgb(27, 29, 30); font-size: 12px; text-align: left; text-wrap-mode: wrap;&quot;&gt;&lt;span style=&quot;scrollbar-color: rgb(75, 75, 75) rgb(27, 29, 30); text-wrap-mode: nowrap; color: rgb(192, 192, 192);&quot;&gt;&lt;font style=&quot;scrollbar-color: rgb(75, 75, 75) rgb(27, 29, 30);&quot;&gt;&amp;nbsp;then, it&lt;/font&gt;&lt;/span&gt;&lt;font style=&quot;scrollbar-color: rgb(75, 75, 75) rgb(27, 29, 30); color: rgb(192, 192, 192);&quot;&gt;&lt;span style=&quot;scrollbar-color: rgb(75, 75, 75) rgb(27, 29, 30); text-wrap-mode: nowrap;&quot;&gt;&amp;nbsp;skips Web APIs&lt;/span&gt;&lt;/font&gt;&lt;/font&gt;&lt;/font&gt;&lt;/div&gt;&lt;div&gt;&lt;font style=&quot;scrollbar-color: rgb(75, 75, 75) rgb(27, 29, 30); font-size: 12px; text-align: left; text-wrap-mode: wrap;&quot;&gt;&lt;font style=&quot;scrollbar-color: rgb(75, 75, 75) rgb(27, 29, 30);&quot;&gt;&lt;span style=&quot;color: light-dark(rgb(0, 0, 0), rgb(255, 255, 255)); scrollbar-color: rgb(75, 75, 75) rgb(27, 29, 30); text-wrap-mode: nowrap;&quot;&gt;&amp;nbsp;and goes&amp;nbsp;&lt;/span&gt;&lt;font style=&quot;scrollbar-color: rgb(75, 75, 75) rgb(27, 29, 30); color: light-dark(rgb(0, 0, 0), rgb(255, 255, 255));&quot;&gt;&lt;span style=&quot;scrollbar-color: rgb(75, 75, 75) rgb(27, 29, 30); text-wrap-mode: nowrap;&quot;&gt;straight to&amp;nbsp;&lt;/span&gt;&lt;/font&gt;&lt;/font&gt;&lt;/font&gt;&lt;/div&gt;&lt;div&gt;&lt;font style=&quot;scrollbar-color: rgb(75, 75, 75) rgb(27, 29, 30); font-size: 12px; text-align: left; text-wrap-mode: wrap;&quot;&gt;&lt;font style=&quot;scrollbar-color: rgb(75, 75, 75) rgb(27, 29, 30);&quot;&gt;&lt;font style=&quot;scrollbar-color: rgb(75, 75, 75) rgb(27, 29, 30); color: light-dark(rgb(0, 0, 0), rgb(255, 255, 255));&quot;&gt;&lt;span style=&quot;scrollbar-color: rgb(75, 75, 75) rgb(27, 29, 30); text-wrap-mode: nowrap;&quot;&gt;the microtask queue&lt;/span&gt;&lt;/font&gt;&lt;/font&gt;&lt;/font&gt;&lt;/div&gt;" style="edgeLabel;html=1;align=center;verticalAlign=middle;resizable=0;points=[];labelBackgroundColor=default;" parent="82" vertex="1" connectable="0">
                    <mxGeometry x="-0.2037" y="-2" relative="1" as="geometry">
                        <mxPoint as="offset"/>
                    </mxGeometry>
                </mxCell>
                <mxCell id="141" value="" style="edgeStyle=none;html=1;" edge="1" parent="1" source="89" target="140">
                    <mxGeometry relative="1" as="geometry"/>
                </mxCell>
                <mxCell id="144" value="if no" style="edgeLabel;html=1;align=center;verticalAlign=middle;resizable=0;points=[];" vertex="1" connectable="0" parent="141">
                    <mxGeometry x="0.1341" y="2" relative="1" as="geometry">
                        <mxPoint as="offset"/>
                    </mxGeometry>
                </mxCell>
                <mxCell id="89" value="check if&amp;nbsp;&lt;div&gt;call stack&amp;nbsp;&lt;/div&gt;&lt;div&gt;is empty&lt;/div&gt;" style="rhombus;whiteSpace=wrap;html=1;" vertex="1" parent="1">
                    <mxGeometry x="-40" y="320" width="110" height="80" as="geometry"/>
                </mxCell>
                <mxCell id="123" value="" style="endArrow=classic;html=1;entryX=0.487;entryY=0.044;entryDx=0;entryDy=0;entryPerimeter=0;exitX=0.5;exitY=1;exitDx=0;exitDy=0;edgeStyle=orthogonalEdgeStyle;flowAnimation=1;" edge="1" parent="1" source="89" target="56">
                    <mxGeometry width="50" height="50" relative="1" as="geometry">
                        <mxPoint x="-170" y="410" as="sourcePoint"/>
                        <mxPoint x="-120" y="360" as="targetPoint"/>
                    </mxGeometry>
                </mxCell>
                <mxCell id="124" value="" style="endArrow=classic;html=1;entryX=-0.004;entryY=0.117;entryDx=0;entryDy=0;entryPerimeter=0;exitX=0.5;exitY=0;exitDx=0;exitDy=0;edgeStyle=orthogonalEdgeStyle;flowAnimation=1;" edge="1" parent="1" source="89" target="35">
                    <mxGeometry width="50" height="50" relative="1" as="geometry">
                        <mxPoint x="-50" y="330" as="sourcePoint"/>
                        <mxPoint y="280" as="targetPoint"/>
                        <Array as="points">
                            <mxPoint x="20" y="320"/>
                            <mxPoint x="20" y="270"/>
                        </Array>
                    </mxGeometry>
                </mxCell>
                <mxCell id="142" value="&lt;span style=&quot;scrollbar-color: rgb(75, 75, 75) rgb(27, 29, 30); font-size: 12px;&quot;&gt;&lt;font style=&quot;color: light-dark(rgb(0, 0, 0), rgb(255, 255, 255));&quot;&gt;event Loop priotises&lt;/font&gt;&lt;/span&gt;&lt;div style=&quot;scrollbar-color: rgb(75, 75, 75) rgb(27, 29, 30); font-size: 12px;&quot;&gt;&lt;font style=&quot;scrollbar-color: rgb(75, 75, 75) rgb(27, 29, 30); color: light-dark(rgb(0, 0, 0), rgb(255, 255, 255));&quot;&gt;&lt;b style=&quot;scrollbar-color: rgb(75, 75, 75) rgb(27, 29, 30);&quot;&gt;mircrotask&lt;/b&gt;&lt;span style=&quot;scrollbar-color: rgb(75, 75, 75) rgb(27, 29, 30);&quot;&gt;, before&lt;/span&gt;&lt;/font&gt;&lt;/div&gt;&lt;div style=&quot;scrollbar-color: rgb(75, 75, 75) rgb(27, 29, 30); font-size: 12px;&quot;&gt;&lt;font style=&quot;scrollbar-color: rgb(75, 75, 75) rgb(27, 29, 30); color: light-dark(rgb(0, 0, 0), rgb(255, 255, 255));&quot;&gt;&lt;span style=&quot;scrollbar-color: rgb(75, 75, 75) rgb(27, 29, 30);&quot;&gt;&amp;nbsp;&lt;/span&gt;&lt;b style=&quot;scrollbar-color: rgb(75, 75, 75) rgb(27, 29, 30);&quot;&gt;macrotask&lt;/b&gt;&lt;/font&gt;&lt;/div&gt;" style="edgeLabel;html=1;align=center;verticalAlign=middle;resizable=0;points=[];" vertex="1" connectable="0" parent="124">
                    <mxGeometry x="0.0563" relative="1" as="geometry">
                        <mxPoint as="offset"/>
                    </mxGeometry>
                </mxCell>
                <mxCell id="126" value="" style="endArrow=classic;html=1;exitX=1;exitY=0.5;exitDx=0;exitDy=0;flowAnimation=1;entryX=0.5;entryY=0;entryDx=0;entryDy=0;edgeStyle=orthogonalEdgeStyle;" edge="1" parent="1" source="89" target="127">
                    <mxGeometry width="50" height="50" relative="1" as="geometry">
                        <mxPoint x="140" y="460" as="sourcePoint"/>
                        <mxPoint x="160" y="430" as="targetPoint"/>
                        <Array as="points">
                            <mxPoint x="80" y="430"/>
                            <mxPoint x="240" y="430"/>
                        </Array>
                    </mxGeometry>
                </mxCell>
                <mxCell id="130" value="if yes" style="edgeLabel;html=1;align=center;verticalAlign=middle;resizable=0;points=[];" vertex="1" connectable="0" parent="126">
                    <mxGeometry x="-0.2619" y="1" relative="1" as="geometry">
                        <mxPoint as="offset"/>
                    </mxGeometry>
                </mxCell>
                <mxCell id="128" value="" style="edgeStyle=orthogonalEdgeStyle;html=1;entryX=0;entryY=0.25;entryDx=0;entryDy=0;flowAnimation=1;" edge="1" parent="1" source="127" target="43">
                    <mxGeometry relative="1" as="geometry"/>
                </mxCell>
                <mxCell id="129" value="" style="edgeStyle=orthogonalEdgeStyle;html=1;entryX=0.944;entryY=0.153;entryDx=0;entryDy=0;entryPerimeter=0;flowAnimation=1;" edge="1" parent="1" source="127" target="56">
                    <mxGeometry relative="1" as="geometry"/>
                </mxCell>
                <mxCell id="127" value="&lt;div style=&quot;scrollbar-color: rgb(75, 75, 75) rgb(27, 29, 30); font-size: 11px; text-wrap-mode: nowrap;&quot;&gt;&lt;font style=&quot;scrollbar-color: rgb(75, 75, 75) rgb(27, 29, 30); color: light-dark(rgb(0, 0, 0), rgb(255, 255, 255)); background-color: light-dark(#ffffff, var(--ge-dark-color, #121212));&quot;&gt;after all the sync code&lt;/font&gt;&lt;/div&gt;&lt;div style=&quot;scrollbar-color: rgb(75, 75, 75) rgb(27, 29, 30); font-size: 11px; text-wrap-mode: nowrap;&quot;&gt;&lt;font style=&quot;scrollbar-color: rgb(75, 75, 75) rgb(27, 29, 30); color: light-dark(rgb(0, 0, 0), rgb(255, 255, 255)); background-color: light-dark(#ffffff, var(--ge-dark-color, #121212));&quot;&gt;&lt;font style=&quot;scrollbar-color: rgb(75, 75, 75) rgb(27, 29, 30);&quot;&gt;&amp;nbsp;has been&amp;nbsp;&lt;/font&gt;&lt;span style=&quot;scrollbar-color: rgb(75, 75, 75) rgb(27, 29, 30);&quot;&gt;&lt;font style=&quot;scrollbar-color: rgb(75, 75, 75) rgb(27, 29, 30);&quot;&gt;executed&lt;/font&gt;&lt;/span&gt;&lt;/font&gt;&lt;/div&gt;" style="text;html=1;align=center;verticalAlign=middle;whiteSpace=wrap;rounded=0;" vertex="1" parent="1">
                    <mxGeometry x="180" y="467.5" width="120" height="30" as="geometry"/>
                </mxCell>
                <mxCell id="137" style="edgeStyle=orthogonalEdgeStyle;html=1;exitX=1;exitY=0.5;exitDx=0;exitDy=0;entryX=0;entryY=0.75;entryDx=0;entryDy=0;flowAnimation=1;" edge="1" parent="1" source="136" target="44">
                    <mxGeometry relative="1" as="geometry"/>
                </mxCell>
                <mxCell id="136" value="&lt;div style=&quot;scrollbar-color: rgb(75, 75, 75) rgb(27, 29, 30); font-size: 11px; text-wrap-mode: nowrap;&quot;&gt;&lt;div style=&quot;scrollbar-color: rgb(75, 75, 75) rgb(27, 29, 30);&quot;&gt;&lt;font style=&quot;scrollbar-color: rgb(75, 75, 75) rgb(27, 29, 30); color: light-dark(rgb(0, 0, 0), rgb(255, 255, 255)); background-color: light-dark(#ffffff, var(--ge-dark-color, #121212));&quot;&gt;after all the sync code&lt;/font&gt;&lt;/div&gt;&lt;div style=&quot;scrollbar-color: rgb(75, 75, 75) rgb(27, 29, 30);&quot;&gt;&lt;font style=&quot;scrollbar-color: rgb(75, 75, 75) rgb(27, 29, 30); color: light-dark(rgb(0, 0, 0), rgb(255, 255, 255)); background-color: light-dark(#ffffff, var(--ge-dark-color, #121212));&quot;&gt;&lt;font style=&quot;scrollbar-color: rgb(75, 75, 75) rgb(27, 29, 30);&quot;&gt;&lt;font style=&quot;scrollbar-color: rgb(75, 75, 75) rgb(27, 29, 30);&quot;&gt;&amp;nbsp;has been&amp;nbsp;&lt;/font&gt;&lt;span style=&quot;scrollbar-color: rgb(75, 75, 75) rgb(27, 29, 30);&quot;&gt;&lt;font style=&quot;scrollbar-color: rgb(75, 75, 75) rgb(27, 29, 30);&quot;&gt;execut&lt;/font&gt;&lt;/span&gt;&lt;/font&gt;&lt;span style=&quot;scrollbar-color: rgb(75, 75, 75) rgb(27, 29, 30);&quot;&gt;&lt;font style=&quot;scrollbar-color: rgb(75, 75, 75) rgb(27, 29, 30);&quot;&gt;checks for microtasks&lt;/font&gt;&lt;/span&gt;&lt;/font&gt;&lt;/div&gt;&lt;div style=&quot;scrollbar-color: rgb(75, 75, 75) rgb(27, 29, 30);&quot;&gt;&lt;font style=&quot;scrollbar-color: rgb(75, 75, 75) rgb(27, 29, 30); color: light-dark(rgb(0, 0, 0), rgb(255, 255, 255)); background-color: light-dark(#ffffff, var(--ge-dark-color, #121212));&quot;&gt;&amp;nbsp;that may have been queued&amp;nbsp;&lt;/font&gt;&lt;/div&gt;&lt;div style=&quot;scrollbar-color: rgb(75, 75, 75) rgb(27, 29, 30);&quot;&gt;&lt;font style=&quot;scrollbar-color: rgb(75, 75, 75) rgb(27, 29, 30); color: light-dark(rgb(0, 0, 0), rgb(255, 255, 255)); background-color: light-dark(#ffffff, var(--ge-dark-color, #121212));&quot;&gt;&lt;span style=&quot;scrollbar-color: rgb(75, 75, 75) rgb(27, 29, 30);&quot;&gt;by the macrotask&lt;/span&gt;ed&lt;/font&gt;&lt;/div&gt;&lt;/div&gt;" style="text;html=1;align=center;verticalAlign=middle;whiteSpace=wrap;rounded=0;" vertex="1" parent="1">
                    <mxGeometry x="150" y="532.5" width="210" height="57.5" as="geometry"/>
                </mxCell>
                <mxCell id="134" style="edgeStyle=orthogonalEdgeStyle;html=1;exitX=1;exitY=0.5;exitDx=0;exitDy=0;entryX=0;entryY=0.25;entryDx=0;entryDy=0;flowAnimation=1;" edge="1" parent="1" source="133" target="8">
                    <mxGeometry relative="1" as="geometry"/>
                </mxCell>
                <mxCell id="139" style="edgeStyle=orthogonalEdgeStyle;html=1;exitX=0.5;exitY=0;exitDx=0;exitDy=0;entryX=0.5;entryY=1;entryDx=0;entryDy=0;flowAnimation=1;" edge="1" parent="1" source="133" target="136">
                    <mxGeometry relative="1" as="geometry"/>
                </mxCell>
                <mxCell id="143" value="if any microtask&lt;div&gt;queued by this&lt;/div&gt;&lt;div&gt;macrotask&lt;/div&gt;" style="edgeLabel;html=1;align=center;verticalAlign=middle;resizable=0;points=[];" vertex="1" connectable="0" parent="139">
                    <mxGeometry x="-0.1203" y="-3" relative="1" as="geometry">
                        <mxPoint as="offset"/>
                    </mxGeometry>
                </mxCell>
                <mxCell id="133" value="&lt;div style=&quot;scrollbar-color: rgb(75, 75, 75) rgb(27, 29, 30); font-size: 11px; text-wrap-mode: nowrap;&quot;&gt;&lt;font style=&quot;scrollbar-color: rgb(75, 75, 75) rgb(27, 29, 30);&quot;&gt;after the&amp;nbsp;&lt;/font&gt;&lt;div style=&quot;scrollbar-color: rgb(75, 75, 75) rgb(27, 29, 30);&quot;&gt;&lt;font style=&quot;scrollbar-color: rgb(75, 75, 75) rgb(27, 29, 30); color: light-dark(rgb(0, 0, 0), rgb(255, 255, 255));&quot;&gt;microtask queue is&amp;nbsp;&lt;/font&gt;&lt;/div&gt;&lt;div style=&quot;scrollbar-color: rgb(75, 75, 75) rgb(27, 29, 30);&quot;&gt;&lt;font style=&quot;scrollbar-color: rgb(75, 75, 75) rgb(27, 29, 30); color: light-dark(rgb(0, 0, 0), rgb(255, 255, 255));&quot;&gt;empty&lt;/font&gt;&lt;/div&gt;&lt;/div&gt;" style="text;html=1;align=center;verticalAlign=middle;whiteSpace=wrap;rounded=0;" vertex="1" parent="1">
                    <mxGeometry x="70" y="680" width="120" height="40" as="geometry"/>
                </mxCell>
                <mxCell id="135" style="edgeStyle=orthogonalEdgeStyle;html=1;exitX=0;exitY=0.5;exitDx=0;exitDy=0;entryX=0.476;entryY=0.971;entryDx=0;entryDy=0;entryPerimeter=0;flowAnimation=1;" edge="1" parent="1" source="133" target="56">
                    <mxGeometry relative="1" as="geometry"/>
                </mxCell>
                <mxCell id="138" style="edgeStyle=orthogonalEdgeStyle;html=1;exitX=0;exitY=0.75;exitDx=0;exitDy=0;entryX=0.91;entryY=0.73;entryDx=0;entryDy=0;entryPerimeter=0;flowAnimation=1;" edge="1" parent="1" source="136" target="56">
                    <mxGeometry relative="1" as="geometry"/>
                </mxCell>
                <mxCell id="140" value="waits for&lt;div&gt;sync code&lt;/div&gt;&lt;div&gt;execution&lt;/div&gt;&lt;div&gt;to complete&lt;/div&gt;" style="ellipse;whiteSpace=wrap;html=1;" vertex="1" parent="1">
                    <mxGeometry x="-190" y="320" width="80" height="80" as="geometry"/>
                </mxCell>
            </root>
        </mxGraphModel>
    </diagram>
</mxfile>